IKResults
version=1
nRows=7
nColumns=63
inDegrees=yes

Units are S.I. units (second, meters, Newtons, ...)
If the header above contains a line with 'inDegrees', this indicates whether rotational values are in degrees (yes) or radians (no).

endheader
time	pelvis_tilt	pelvis_list	pelvis_rotation	pelvis_tx	pelvis_ty	pelvis_tz	hip_flexion_r	hip_adduction_r	hip_rotation_r	knee_angle_r	knee_angle_r_beta	ankle_angle_r	subtalar_angle_r	mtp_angle_r	hip_flexion_l	hip_adduction_l	hip_rotation_l	knee_angle_l	knee_angle_l_beta	ankle_angle_l	subtalar_angle_l	mtp_angle_l	L5_S1_Flex_Ext	L5_S1_Lat_Bending	L5_S1_axial_rotation	L4_L5_Flex_Ext	L4_L5_Lat_Bending	L4_L5_axial_rotation	L3_L4_Flex_Ext	L3_L4_Lat_Bending	L3_L4_axial_rotation	L2_L3_Flex_Ext	L2_L3_Lat_Bending	L2_L3_axial_rotation	L1_L2_Flex_Ext	L1_L2_Lat_Bending	L1_L2_axial_rotation	L1_T12_Flex_Ext	L1_T12_Lat_Bending	L1_T12_axial_rotation	Abs_r3	Abs_r2	Abs_r1	Abs_t1	Abs_t2	neck_flexion	neck_bending	neck_rotation	arm_flex_r	arm_add_r	arm_rot_r	elbow_flex_r	pro_sup_r	wrist_flex_r	wrist_dev_r	arm_flex_l	arm_add_l	arm_rot_l	elbow_flex_l	pro_sup_l	wrist_flex_l	wrist_dev_l
      4.03333333	     63.82293052	     46.41764675	     14.89915211	     -0.95788262	      0.69368325	     -0.19327730	      0.69213483	    -14.99500499	     -6.54220145	     75.74493969	      1.32199859	     15.69271428	    -19.16832957	      0.00000000	     -3.88799610	    -22.43167800	    -24.93345099	     75.06550436	      1.31014021	      4.49225780	    -19.17170172	      0.00000000	     -9.85579179	     -0.18048000	      1.69841183	    -18.30319093	     -0.24003841	      1.80456257	    -16.19208033	     -0.43881908	      1.80456257	    -11.26418444	     -0.43881908	      1.48611035	     -9.15208826	     -0.36803482	      1.37995961	     -5.63159943	     -0.27956353	      1.27380888	    -70.39893518	     -2.04162590	      9.44605709	      0.00000000	      0.00000000	     20.17497857	     -0.49790665	    -29.17124765	     -3.24038066	    -39.66929077	     -0.25204629	     87.91865284	     89.99559364	      0.00000000	      0.00000000	     -9.80478794	    -27.83342763	    -16.40278831	    101.63710888	     89.99559364	      0.00000000	      0.00000000
      4.06666667	     63.83014868	     46.44502769	     14.97881540	     -0.95839718	      0.69358532	     -0.19343411	      0.64969378	    -14.95724580	     -6.47793815	     75.69394183	      1.32110851	     15.62220299	    -19.17057112	      0.00000000	     -3.88662587	    -22.46585756	    -25.03148187	     75.06314704	      1.31009906	      4.45836235	    -19.18152251	      0.00000000	     -9.86199087	     -0.17452272	      1.67617417	    -18.31470325	     -0.23211522	      1.78093505	    -16.20226481	     -0.42433455	      1.78093505	    -11.27126937	     -0.42433455	      1.46665240	     -9.15784473	     -0.35588673	      1.36189151	     -5.63514159	     -0.27033570	      1.25713063	    -70.44321462	     -1.97423593	      9.32237787	      0.00000000	      0.00000000	     20.22262292	     -0.55457469	    -29.16731844	     -3.20825423	    -39.71466212	     -0.19214890	     87.96626464	     89.99559364	      0.00000000	      0.00000000	     -9.89148496	    -27.87565059	    -16.36833789	    101.68456022	     89.99559364	      0.00000000	      0.00000000
      4.10000000	     63.84104916	     46.47706953	     15.05434633	     -0.95889812	      0.69349521	     -0.19352844	      0.60794238	    -14.92334005	     -6.41170712	     75.64270430	      1.32021425	     15.54162856	    -19.17767861	      0.00000000	     -3.88213098	    -22.50682376	    -25.11617288	     75.05385291	      1.30993685	      4.41068232	    -19.19086821	      0.00000000	     -9.86934487	     -0.16936181	      1.65197945	    -18.32836037	     -0.22525121	      1.75522817	    -16.21434669	     -0.41178630	      1.75522817	    -11.27967426	     -0.41178630	      1.44548202	     -9.16467365	     -0.34536260	      1.34223330	     -5.63934366	     -0.26234144	      1.23898459	    -70.49574351	     -1.91585466	      9.18781412	      0.00000000	      0.00000000	     20.27463701	     -0.62276523	    -29.15652943	     -3.14633982	    -39.78776844	     -0.09988274	     88.01548845	     89.99559364	      0.00000000	      0.00000000	     -9.97637828	    -27.91435535	    -16.33729761	    101.74582395	     89.99559364	      0.00000000	      0.00000000
      4.13333333	     64.01826489	     46.37103708	     15.00587628	     -0.95981796	      0.69323996	     -0.19317947	      0.50766701	    -14.71924011	     -6.39785102	     75.51628132	      1.31800775	     15.34302458	    -19.23121121	      0.00000000	     -3.90194555	    -22.67864608	    -25.13538389	     75.04766948	      1.30982893	      4.25937210	    -19.22771956	      0.00000000	     -9.89981987	     -0.15922199	      1.59328659	    -18.38495547	     -0.21176524	      1.69286701	    -16.26441406	     -0.38713233	      1.69286701	    -11.31450413	     -0.38713233	      1.39412577	     -9.19297273	     -0.32468547	      1.29454536	     -5.65675707	     -0.24663486	      1.19496495	    -70.71342333	     -1.80115094	      8.86138205	      0.00000000	      0.00000000	     20.59090860	     -0.95491816	    -28.85533310	     -2.36499452	    -40.21713939	      0.99365159	     87.96604496	     89.99559364	      0.00000000	      0.00000000	    -10.32652659	    -27.75045476	    -16.78387982	    102.01634440	     89.99559364	      0.00000000	      0.00000000
      4.16666667	     64.02807145	     46.38892472	     15.02730943	     -0.96007482	      0.69319407	     -0.19321697	      0.49676049	    -14.71836342	     -6.37340386	     75.51001399	      1.31789836	     15.33750023	    -19.18810606	      0.00000000	     -3.89718932	    -22.67466138	    -25.15461546	     75.04860431	      1.30984524	      4.25295822	    -19.18415376	      0.00000000	     -9.90449599	     -0.15558177	      1.58990298	    -18.39363951	     -0.20692375	      1.68927192	    -16.27209647	     -0.37828151	      1.68927192	    -11.31984847	     -0.37828151	      1.39116511	     -9.19731498	     -0.31726234	      1.29179617	     -5.65942901	     -0.24099616	      1.19242724	    -70.74682443	     -1.75997208	      8.84256341	      0.00000000	      0.00000000	     20.57966806	     -0.95054971	    -28.85015905	     -2.36837095	    -40.21538850	      1.00509988	     87.96521880	     89.99559364	      0.00000000	      0.00000000	    -10.35444592	    -27.76732753	    -16.78470228	    102.01831438	     89.99559364	      0.00000000	      0.00000000
      4.20000000	     64.03628468	     46.42452750	     15.09054660	     -0.96047851	      0.69315188	     -0.19336267	      0.45147638	    -14.68380743	     -6.28628936	     75.45901197	      1.31700821	     15.30928683	    -19.20749791	      0.00000000	     -3.88877229	    -22.68552478	    -25.22894759	     75.04338686	      1.30975418	      4.22356030	    -19.20380469	      0.00000000	     -9.90929227	     -0.15243585	      1.56686019	    -18.40254668	     -0.20273968	      1.66478895	    -16.27997627	     -0.37063253	      1.66478895	    -11.32533014	     -0.37063253	      1.37100267	     -9.20176880	     -0.31084719	      1.27307391	     -5.66216960	     -0.23612313	      1.17514514	    -70.78108377	     -1.72438483	      8.71440633	      0.00000000	      0.00000000	     20.54461563	     -0.93738724	    -28.82803297	     -2.32396315	    -40.28931407	      1.01869047	     87.98156772	     89.99559364	      0.00000000	      0.00000000	    -10.40842613	    -27.78358370	    -16.76370794	    102.03989107	     89.99559364	      0.00000000	      0.00000000
      4.23333333	     64.04650077	     46.42791213	     15.09139308	     -0.96064694	      0.69312060	     -0.19334670	      0.45000756	    -14.68583387	     -6.27697152	     75.44786760	      1.31681370	     15.30792627	    -19.17398286	      0.00000000	     -3.87974699	    -22.67905947	    -25.23759866	     75.04105699	      1.30971352	      4.21569431	    -19.16603380	      0.00000000	     -9.91369721	     -0.14991581	      1.56704017	    -18.41072709	     -0.19938803	      1.66498018	    -16.28721315	     -0.36450530	      1.66498018	    -11.33036454	     -0.36450530	      1.37116015	     -9.20585923	     -0.30570832	      1.27322014	     -5.66468659	     -0.23221959	      1.17528013	    -70.81254780	     -1.69587763	      8.71540731	      0.00000000	      0.00000000	     20.52634837	     -0.93284485	    -28.81765056	     -2.30960976	    -40.27974706	      1.04369712	     87.98643981	     89.99559364	      0.00000000	      0.00000000	    -10.43521481	    -27.78622497	    -16.76948322	    102.04008925	     89.99559364	      0.00000000	      0.00000000
